<svg aria-hidden="true" style="width:0;height:0;position:absolute;overflow:hidden" xmlns="http://www.w3.org/2000/svg"><defs><symbol id="Appello" viewBox="0 0 98 32"><path fill="#fff" style="fill:var(--color1,#fff)" d="m37.477 21.749 4.972-12.846h2.631l4.953 12.846H47.62l-.98-2.631h-5.806l-.962 2.631h-2.395zm6.26-10.523-2.214 6.006h4.427l-2.214-6.006zm16.09 5.751c0 3.139-1.706 4.935-4.082 4.935-.925 0-1.687-.272-2.431-.726v3.429h-2.159V12.259h1.651l.345.889c.69-.562 1.56-1.052 2.794-1.052 2.214 0 3.883 1.778 3.883 4.881zm-2.068 0c0-1.96-.998-3.121-2.431-3.121-.816 0-1.506.363-2.014.78v4.844c.562.381 1.234.671 1.96.653 1.47 0 2.486-1.089 2.486-3.157zm12.099 0c0 3.139-1.706 4.935-4.082 4.935-.925 0-1.687-.272-2.431-.726v3.429h-2.159V12.259h1.651l.345.889c.689-.562 1.56-1.052 2.794-1.052 2.214 0 3.883 1.778 3.883 4.881zm-2.068 0c0-1.96-.998-3.121-2.431-3.121-.816 0-1.506.363-2.014.78v4.844c.562.381 1.234.671 1.96.653 1.47 0 2.486-1.089 2.486-3.157zm11.554.726h-6.605c.109 1.56 1.161 2.631 2.849 2.631.889 0 1.905-.29 2.812-.798l.581 1.397a7.157 7.157 0 0 1-3.574.98c-2.776 0-4.681-1.706-4.681-4.863 0-3.012 1.851-4.99 4.355-4.99 2.631 0 4.264 2.05 4.264 5.08v.562zm-4.282-4.028c-1.306 0-2.195 1.107-2.322 2.704h4.609c-.127-1.597-.962-2.704-2.286-2.704zm7.69 8.074h-2.159V8.576h2.159v13.173zm4.025 0h-2.159V8.576h2.159v13.173zm10.357-4.753c0 3.012-1.941 4.953-4.499 4.953-2.595 0-4.5-1.923-4.5-4.935s1.942-4.953 4.518-4.953c2.558 0 4.482 1.923 4.482 4.935zm-1.996.018c0-1.869-1.034-3.175-2.503-3.175-1.488 0-2.504 1.288-2.504 3.157s1.034 3.157 2.522 3.157c1.452 0 2.486-1.27 2.486-3.139zM15.934.442 26.92 6.785a3.298 3.298 0 0 1 1.65 2.857v12.686a3.298 3.298 0 0 1-1.65 2.857l-10.986 6.343a3.3 3.3 0 0 1-3.299 0L1.649 25.185A3.297 3.297 0 0 1 0 22.328V9.642a3.3 3.3 0 0 1 1.649-2.857L12.635.442a3.3 3.3 0 0 1 3.299 0zm-1.649 10.594L9.999 13.51v4.948l4.286 2.474 4.286-2.474V13.51l-4.286-2.474z"/></symbol><symbol id="icon-partner1" viewBox="0 0 165 32"><path fill="#888" style="fill:var(--color1,#888)" d="M113.209 27.094c-1.596 0-3.168-.473-4.266-1.544l.923-1.17c1.047.872 2.17 1.22 3.318 1.22 1.821 0 3.418-1.046 3.418-3.088v-1.893c-.624 1.146-1.921 1.967-3.492 1.967-2.794 0-4.765-2.117-4.765-5.379 0-2.938 1.895-5.528 4.814-5.528 2.819 0 3.543 1.868 3.543 1.868v-1.868c.873 0 1.571.697 1.571 1.569v8.965c-.025 3.362-2.295 4.881-5.064 4.881zm.1-13.846c-2.12 0-3.293 1.868-3.293 3.885 0 2.291 1.197 3.959 3.343 3.959 1.971 0 3.318-1.893 3.318-3.91 0-2.117-1.372-3.935-3.368-3.935zM44.48 17.208c.05 2.192 1.397 3.885 3.667 3.885 1.547 0 2.569-.548 3.518-1.419l1.073 1.046c-.948.996-2.42 1.893-4.615 1.893-3.293 0-5.289-2.391-5.289-5.578 0-2.814 1.971-5.329 5.164-5.329 2.694 0 4.316 1.793 4.815 4.134.15.722-.424 1.37-1.148 1.37H44.48zm3.418-4.009c-1.921 0-3.068 1.195-3.343 2.689h6.511c-.249-1.37-1.322-2.689-3.168-2.689zM58.451 24.629c-.474 1.295-1.272 2.341-2.869 2.341-.624 0-1.098-.075-1.597-.274v-1.544c.374.199.723.299 1.173.299 1.247 0 1.597-.872 1.971-1.893l.474-1.22-3.892-10.335h1.771l3.118 8.143 2.994-8.143h1.721L58.45 24.629zM65.81 17.208c.05 2.192 1.397 3.885 3.667 3.885 1.546 0 2.569-.548 3.517-1.419l1.073 1.046c-.973.996-2.42 1.893-4.616 1.893-3.293 0-5.288-2.391-5.288-5.578 0-2.814 1.971-5.329 5.164-5.329 2.694 0 4.316 1.793 4.814 4.134.15.722-.424 1.37-1.148 1.37h-7.185zm3.418-4.009c-1.921 0-3.069 1.195-3.343 2.689h6.511c-.224-1.37-1.322-2.689-3.168-2.689zM80.105 22.387c-1.847 0-3.019-.722-3.019-2.764v-6.101h-1.521v-1.519h1.521V7.197h1.647v4.806h1.946v1.519h-1.946v6.051c0 .797.424 1.27 1.422 1.27h.549v1.519s-.549.025-.598.025zM84.021 17.208c.05 2.192 1.397 3.885 3.668 3.885 1.546 0 2.569-.548 3.517-1.419l1.073 1.046c-.948.996-2.42 1.893-4.615 1.893-3.294 0-5.289-2.391-5.289-5.578 0-2.814 1.971-5.329 5.164-5.329 2.694 0 4.316 1.793 4.815 4.134.15.722-.424 1.37-1.148 1.37h-7.185zm3.418-4.009c-1.921 0-3.069 1.195-3.343 2.689h6.511c-.249-1.37-1.322-2.689-3.168-2.689zM94.698 22.313V7.222h1.647v15.091h-1.647zM99.538 22.313V7.222h1.647v15.091h-1.647zM104.228 9.389V6.973h.474a1.17 1.17 0 0 1 1.172 1.17v1.245h-1.646zm0 12.924v-10.31h1.646v10.285h-1.646v.025zM122.24 17.208c.05 2.192 1.397 3.885 3.668 3.885 1.546 0 2.569-.548 3.518-1.419l1.072 1.046c-.972.996-2.42 1.893-4.614 1.893-3.294 0-5.29-2.391-5.29-5.578 0-2.814 1.971-5.329 5.164-5.329 2.694 0 4.316 1.793 4.815 4.134.15.722-.423 1.37-1.147 1.37h-7.185zm3.418-4.009c-1.921 0-3.069 1.195-3.343 2.689h6.511c-.25-1.37-1.322-2.689-3.168-2.689zM156.567 17.208c.049 2.192 1.397 3.885 3.666 3.885 1.547 0 2.57-.548 3.518-1.419l1.073 1.046c-.949.996-2.42 1.893-4.615 1.893-3.292 0-5.289-2.391-5.289-5.578 0-2.814 1.97-5.329 5.164-5.329 2.694 0 4.315 1.793 4.814 4.134.15.722-.423 1.37-1.147 1.37h-7.184zm3.418-4.009c-1.921 0-3.07 1.195-3.344 2.689h6.512c-.25-1.37-1.322-2.689-3.168-2.689zM139.952 22.313v-6.574c0-1.469-.823-2.515-2.42-2.515-1.921 0-2.969 1.693-2.969 3.138v5.952h-1.647v-9.139c0-.647.524-1.17 1.173-1.17h.474v1.494c.624-1.121 1.846-1.793 3.218-1.793 2.32 0 3.817 1.494 3.817 3.76v6.848h-1.647zM148.958 22.612c-3.217 0-5.238-2.416-5.238-5.479 0-2.963 2.145-5.429 5.114-5.429 2.346 0 3.668 1.195 4.416 2.167l-1.248.971c-.673-.872-1.646-1.594-3.093-1.594-2.121 0-3.518 1.818-3.518 3.81 0 2.341 1.472 4.034 3.493 4.034 1.472 0 2.495-.722 3.367-1.893l1.198.872c-.948 1.395-2.545 2.54-4.491 2.54z"/><path fill="#888" style="fill:var(--color2,#888)" d="M18.644 0C7.841 0 0 5.728 0 16.062 0 25.55 8.909 32 18.401 32c9.977 0 18.522-6.574 18.522-16.187C36.923 5.603 28.135 0 18.644 0zm2.961 25.675c-5.729 0-11.07-3.063-11.07-7.595 0-4.931 4.709-7.645 11.215-7.645 5.729 0 11.021 2.665 11.021 7.546-.024 4.557-5.171 7.695-11.167 7.695z"/></symbol><symbol id="icon-partner2" viewBox="0 0 235 32"><path fill="#888" style="fill:var(--color3,#888)" d="M67.443 1.111H52.601l12.593 15.226-21.588 15.662h14.392l12.593-9.571 8.096 9.571h14.842L80.037 16.337l21.588-15.226H86.783L74.64 9.812l-7.196-8.701z"/><path fill="#888" style="fill:var(--color3,#888)" d="M115.567 21.994 101.175.677l13.942.435 8.096 12.616 13.492-12.616h14.392l-24.736 20.882L123.662 32h-10.794l2.699-10.006zM158.742.677l-9.445 8.701h27.931c1.446 0 2.262 1.663 1.376 2.806-.33.425-.838.674-1.376.674h-15.787l-7.646 6.961h20.003c1.312 0 2.01 1.55 1.139 2.532a1.522 1.522 0 0 1-1.139.513h-23.152L141.201 32h32.814c5.419 0 10.27-3.366 12.165-8.444l1.122-3.004c.762-2.04-.747-4.214-2.925-4.214a4.647 4.647 0 0 0 4.499-3.483l1.59-6.153c.787-3.051-1.515-6.026-4.667-6.026h-27.058zM201.918.677l-9.445 8.701h27.931c1.446 0 2.262 1.663 1.376 2.806-.33.425-.838.674-1.376.674h-15.787l-7.646 6.961h20.003c1.314 0 2.01 1.55 1.139 2.532a1.522 1.522 0 0 1-1.139.513h-23.152L184.377 32h32.814c5.419 0 10.27-3.366 12.165-8.444l1.122-3.004c.762-2.04-.747-4.214-2.925-4.214a4.647 4.647 0 0 0 4.499-3.483l1.59-6.153c.789-3.051-1.515-6.026-4.667-6.026h-27.058zM2.73 27.548C1.392 26.254-.183 23.689.017 21.755c.285-3.402.719-6.461 1.985-9.698.598-1.505 1.534-3.02 2.713-4.161.794-.928 1.588-1.824 2.68-2.496 2.425-1.53 4.637-2.896 7.478-3.681C18.404.668 22.243.221 25.924.055c4.525-.204 9.094.199 11.581.64 1.82.32 3.607.896 5.36 1.728 1.654.768 2.945 1.888 4.07 3.137.523.595.845 1.411 1.154 2.191l.07.177c1.258 3.227-.018 8.549-1.423 11.81-.624 1.409-1.328 2.751-2.349 3.937-1.712 1.987-3.601 3.613-5.956 4.833-2.314 1.199-4.616 1.894-7.147 2.528-2.309.57-4.897.928-7.279.928l-.205.003c-6.096.075-12.055.148-17.761-2.275a11.426 11.426 0 0 1-3.309-2.144zM19.374 9.207c-1.654.288-3.176.736-4.599 1.6-3.014 1.778-3.64 5.731-3.64 8.802 0 .768 1.026 2.176 1.754 2.432 5.44 1.846 13.547 1.876 18.926.096 1.191-.384 2.151-.96 3.011-1.792 1.746-1.747 2.812-4.716 2.812-7.137 0-1.856-1.125-3.393-2.978-3.745-4.867-.919-10.415-1.104-15.287-.256z"/></symbol><symbol id="icon-partner3" viewBox="0 0 235 32"><path fill="#888" style="fill:var(--color3,#888)" d="M67.443 1.111H52.601l12.593 15.226-21.588 15.662h14.392l12.593-9.571 8.096 9.571h14.842L80.037 16.337l21.588-15.226H86.783L74.64 9.812l-7.196-8.701z"/><path fill="#888" style="fill:var(--color3,#888)" d="M115.567 21.994 101.175.677l13.942.435 8.096 12.616 13.492-12.616h14.392l-24.736 20.882L123.662 32h-10.794l2.699-10.006zM158.742.677l-9.445 8.701h27.931c1.446 0 2.262 1.663 1.376 2.806-.33.425-.838.674-1.376.674h-15.787l-7.646 6.961h20.003c1.312 0 2.01 1.55 1.139 2.532a1.522 1.522 0 0 1-1.139.513h-23.152L141.201 32h32.814c5.419 0 10.27-3.366 12.165-8.444l1.122-3.004c.762-2.04-.747-4.214-2.925-4.214a4.647 4.647 0 0 0 4.499-3.483l1.59-6.153c.787-3.051-1.515-6.026-4.667-6.026h-27.058zM201.918.677l-9.445 8.701h27.931c1.446 0 2.262 1.663 1.376 2.806-.33.425-.838.674-1.376.674h-15.787l-7.646 6.961h20.003c1.314 0 2.01 1.55 1.139 2.532a1.522 1.522 0 0 1-1.139.513h-23.152L184.377 32h32.814c5.419 0 10.27-3.366 12.165-8.444l1.122-3.004c.762-2.04-.747-4.214-2.925-4.214a4.647 4.647 0 0 0 4.499-3.483l1.59-6.153c.789-3.051-1.515-6.026-4.667-6.026h-27.058zM2.73 27.548C1.392 26.254-.183 23.689.017 21.755c.285-3.402.719-6.461 1.985-9.698.598-1.505 1.534-3.02 2.713-4.161.794-.928 1.588-1.824 2.68-2.496 2.425-1.53 4.637-2.896 7.478-3.681C18.404.668 22.243.221 25.924.055c4.525-.204 9.094.199 11.581.64 1.82.32 3.607.896 5.36 1.728 1.654.768 2.945 1.888 4.07 3.137.523.595.845 1.411 1.154 2.191l.07.177c1.258 3.227-.018 8.549-1.423 11.81-.624 1.409-1.328 2.751-2.349 3.937-1.712 1.987-3.601 3.613-5.956 4.833-2.314 1.199-4.616 1.894-7.147 2.528-2.309.57-4.897.928-7.279.928l-.205.003c-6.096.075-12.055.148-17.761-2.275a11.426 11.426 0 0 1-3.309-2.144zM19.374 9.207c-1.654.288-3.176.736-4.599 1.6-3.014 1.778-3.64 5.731-3.64 8.802 0 .768 1.026 2.176 1.754 2.432 5.44 1.846 13.547 1.876 18.926.096 1.191-.384 2.151-.96 3.011-1.792 1.746-1.747 2.812-4.716 2.812-7.137 0-1.856-1.125-3.393-2.978-3.745-4.867-.919-10.415-1.104-15.287-.256z"/></symbol><symbol id="icon-partner4" viewBox="0 0 31 32"><path fill="#888" style="fill:var(--color3,#888)" d="M26.349 5.965c-.015 0-.046-.023-.054-.062-.015-.054.008-.1.069-.108.046-.008.069.023.077.062.015.054 0 .093-.093.108zM22.67 15.205c-.015-.015-.039-.039-.039-.054.008-.046.039-.062.077-.039.015.008.031.046.023.062s-.039.023-.062.031zM11.771 7.538c.008-.015.015-.046.039-.054.046-.015.069.008.077.054 0 .023-.015.054-.031.062-.039 0-.077-.008-.085-.062zM4.559 8.078c-.015.031-.039.039-.046.015-.008-.015-.008-.039-.008-.062 0-.008.015-.015.023-.015.031.015.039.031.031.062zM31.371 14.048c-.015.031-.039.039-.062.023-.015-.008-.023-.031-.039-.046.023-.008.046-.023.062-.023s.023.031.039.046zM19.107 6.828c-.015-.008-.031-.015-.046-.031.008-.008.015-.023.023-.023l.046.023a.103.103 0 0 0-.023.031z"/><path fill="#888" style="fill:var(--color3,#888)" d="M10.699 7.669c.015-.285.154-.501.285-.717l2.314-3.733c.609-.987 1.226-1.967 1.836-2.954.208-.332.486-.339.71-.008.741 1.134 1.481 2.268 2.214 3.394.956 1.466 1.921 2.939 2.877 4.404l2.684 4.119c.671 1.034 1.35 2.059 2.021 3.085a.978.978 0 0 1 .023 1.095c-1.103 1.844-2.222 3.687-3.332 5.531l-.926 1.527c-.193.316-.463.332-.663.023-.602-.918-1.196-1.836-1.79-2.754l-2.245-3.471c-.694-1.072-1.388-2.152-2.09-3.224l-2.245-3.448c-.517-.787-1.034-1.574-1.535-2.368-.069-.139-.085-.332-.139-.501zM.054 7.361c-.093-.363.147-.617.309-.879C1.559 4.546 2.77 2.61 3.973.666c.108-.17.201-.339.316-.501.162-.216.409-.216.563.008.401.602.795 1.211 1.196 1.82l2.09 3.201 1.921 2.962c.733 1.134 1.473 2.26 2.214 3.394.501.771 1.003 1.543 1.504 2.322.316.486.64.972.956 1.466.208.324.224.686.031 1.003-.625 1.057-1.265 2.106-1.905 3.155-.694 1.149-1.381 2.306-2.075 3.456a6.754 6.754 0 0 1-.37.586c-.162.231-.409.231-.555-.008-.555-.887-1.111-1.782-1.666-2.669-.748-1.211-1.496-2.414-2.245-3.625l-2.407-3.888L1.15 9.499C.826 8.974.494 8.458.186 7.925c-.093-.162-.123-.363-.185-.548.008-.008.031-.015.054-.015zM31.055 6.99c.023.324-.093.586-.255.848-.98 1.604-1.944 3.224-2.916 4.836-.386.64-.779 1.28-1.172 1.921-.208.339-.463.339-.679.008-1.057-1.612-2.121-3.224-3.178-4.836l-1.064-1.62c-.231-.363-.231-.733-.015-1.088 1.095-1.79 2.198-3.564 3.301-5.353.278-.455.555-.91.833-1.358.031-.046.062-.1.093-.147.193-.27.455-.27.64 0 .316.447.617.895.933 1.342.856 1.242 1.712 2.476 2.569 3.718.27.393.555.764.802 1.172.085.154.069.37.108.555zM6.742 27.733c-.1.424-.185.802-.278 1.18a185.39 185.39 0 0 1-.471 2.059c-.1.424-.401.656-.833.648-.224 0-.455-.008-.663-.069a.541.541 0 0 1-.309-.301A14.203 14.203 0 0 1 3.887 30c-.154-.741-.293-1.481-.44-2.221-.069-.355-.147-.717-.208-1.072-.031-.193.046-.27.239-.278.255 0 .517.008.771 0 .154-.008.224.077.239.216.108.733.208 1.458.316 2.191.085.563.177 1.126.309 1.697.046-.177.093-.363.131-.54.216-.98.424-1.967.64-2.947.069-.309.193-.409.501-.409h.748c.231 0 .362.093.417.316.116.486.216.972.324 1.458.154.702.316 1.412.517 2.121.031-.177.062-.355.085-.532.1-.663.201-1.334.293-1.998l.185-1.273c.031-.247.093-.301.347-.301h.671c.208 0 .293.108.255.301-.177.879-.347 1.759-.525 2.638l-.324 1.62c-.093.471-.309.64-.787.64-.185 0-.378.008-.555-.039-.432-.116-.54-.486-.625-.864l-.648-2.869c.023-.031.008-.054-.023-.123zM17.864 29.467v1.751c0 .332-.046.386-.37.386H16.9c-.17 0-.255-.069-.255-.255v-6.472c0-.17.085-.247.247-.247h.671c.247 0 .309.069.309.309v3.625c.077-.085.123-.131.162-.185.44-.586.872-1.172 1.311-1.759.1-.131.216-.201.393-.193.285.015.578 0 .864.008.062 0 .154.031.177.069.023.046-.015.139-.054.185-.548.686-1.103 1.365-1.666 2.036-.1.123-.1.201-.008.332a257.97 257.97 0 0 1 1.697 2.306c.093.123.046.231-.1.239-.37.008-.748.015-1.118-.008-.093-.008-.193-.1-.255-.185-.409-.571-.802-1.157-1.203-1.736-.046-.069-.1-.139-.154-.216-.023-.008-.039 0-.054.008z"/><path fill="#888" style="fill:var(--color3,#888)" d="M21.744 29.437c-.093.594.301 1.126.864 1.134.586.008 1.165-.031 1.751-.054.27-.015.309.008.309.27 0 .162-.008.324 0 .478s-.069.208-.208.239c-.748.177-1.512.147-2.26.085-.686-.054-1.219-.463-1.496-1.118a2.753 2.753 0 0 1-.201-.887 8.711 8.711 0 0 1 .046-1.55c.123-.941.864-1.589 1.82-1.658.54-.039 1.064 0 1.535.301.54.347.818.856.91 1.466.046.332.039.679.046 1.018.008.216-.054.278-.27.278h-2.846zm1.867-.887c0-.424-.1-.794-.478-1.003a.912.912 0 0 0-.949.015c-.363.216-.478.571-.455.995.633-.008 1.25-.008 1.882-.008zM13.09 31.289a2.84 2.84 0 0 0-.27.139c-.501.27-1.057.239-1.581.162-.494-.077-.81-.417-.941-.926-.108-.44-.108-.872.069-1.28.224-.517.686-.733 1.211-.802.417-.054.841-.054 1.265-.069.139 0 .201-.046.185-.185-.008-.093 0-.193 0-.285-.015-.424-.208-.633-.625-.64-.393-.008-.794.015-1.196.031-.147.008-.293.023-.44.031-.162.015-.239-.054-.239-.216v-.478c0-.139.054-.224.185-.247.262-.046.532-.108.794-.116.494-.008.995-.039 1.473.039.81.131 1.273.748 1.28 1.62.008 1.08 0 2.16 0 3.232 0 .231-.069.301-.301.301h-.555c-.185.008-.324-.046-.316-.309zm-.062-1.936c-.347 0-.671-.031-.987.008-.494.062-.756.733-.47 1.142.039.054.116.1.185.123.416.139.81.015 1.188-.162.039-.015.077-.085.077-.131.015-.324.008-.64.008-.98zM14.833 28.095v-3.178c0-.239.062-.301.293-.301h.633c.247 0 .309.062.309.301v6.294c0 .339-.039.378-.37.378h-.555c-.247 0-.309-.062-.309-.308v-3.186zM26.419 26.699c.309-.1.609-.208.91-.309.008 0 .015 0 .015-.008.471-.085.54-.031.54.44 0 .1-.008.208 0 .309.008.177-.062.239-.239.27-.339.062-.671.154-1.003.231-.154.039-.193.131-.193.278.008 1.111 0 2.221 0 3.332 0 .293-.054.347-.355.347-.208 0-.409.008-.617 0-.201-.008-.262-.077-.262-.27v-4.644c0-.208.054-.262.262-.262h.555c.324.008.332.015.386.285z"/></symbol><symbol id="icon-partner5" viewBox="0 0 73 32"><path fill="#888" style="fill:var(--color3,#888)" d="M53.608 10.233h-7.103l-3.643 5.7-3.704-5.7h-7.47l7.256 10.42-7.133 10.358h6.98c.276-.429.888-1.348 1.806-2.758s1.592-2.452 1.99-3.095l3.827 5.853h7.44c-.306-.46-2.786-3.984-7.44-10.604l7.195-10.175z"/><path fill="#888" style="fill:var(--color3,#888)" d="M23.605 9.743c-5.909 0-10.685 4.781-10.685 10.696s4.776 10.696 10.685 10.696c5.909 0 10.685-4.781 10.685-10.696S29.514 9.743 23.605 9.743zm0 15.782c-2.817 0-5.082-2.268-5.082-5.087s2.266-5.087 5.082-5.087a5.072 5.072 0 0 1 5.082 5.087c0 2.789-2.266 5.087-5.082 5.087z"/><path fill="#888" style="fill:var(--color3,#888)" d="M14.206 10.202H9.675V8.608c0-1.042.276-1.777.827-2.176.551-.429 1.194-.644 1.898-.644s1.316.061 1.898.215V.793c-.612-.306-1.623-.46-3.031-.46-2.48 0-4.439.736-5.848 2.207S3.307 5.972 3.307 8.393v1.808H.001v5.363h3.306v15.507h6.368V15.564h3c.398-.889.918-1.686 1.531-2.421v-2.942zM68.395 19.949c1.623.613 3.674.184 4.776-.981.153-.184.092-.46-.092-.552-1.041-.521-1.745-1.41-2.327-2.421-.092-.184-.214-.337-.306-.521.765.031 1.408-.153 1.408-.153-.276.061-.674-.061-1.133-.306.337-.061.582-.153.582-.153-.337.123-1.102-.337-1.837-.95l-.061-.061c-1.837-1.716-4.684-3.524-8.48-3.524s-7.746 2.85-9.277 6.528c-.429.766-1.133 1.839-1.868 1.839 0 0 .857.092 1.316-.153-.184.827-.582 2.819-.551 3.218l1.316-2.39c-.367.705-1.072 2.636-.122 5.149.122-.981.49-1.931.49-1.931-.214 1.655-.061 2.666.276 3.616a6.945 6.945 0 0 0 1.133 1.869c2.082 2.237 5.113 3.586 8.419 3.371h.031c5.174-.337 9.399-4.505 9.828-9.654.031-.46.061-1.042.031-1.471 0 0-1.194.644-2.664.49-1.286-.153-2.725-1.195-3.031-1.471 0 .031 0 .061.031.061.031.061.031.123.061.184s.031.153.061.214c.031.092.031.153.061.245 0 .061.031.123.031.184.031.245.061.49.061.736 0 2.819-2.296 5.118-5.113 5.118s-5.113-2.298-5.113-5.118v.031c0-1.348.52-2.605 1.378-3.524l.031-.031c.276-.276.582-.552.918-.766l.031-.031s.031 0 .031-.031c.061-.031.092-.061.153-.092s.092-.061.153-.092h.031l.367-.184c.031 0 .031-.031.061-.031.612-.276 1.286-.398 1.99-.398.153 0 .306 0 .459.031.52.031 1.041.184 1.531.368.031 0 .031 0 .061.031.153.061.276.123.429.214 0 0 .031 0 .031.031.306.184.612.398.888.613.214.245.459.613.582 1.165.031-.092.459-.552-.949-2.636a1.469 1.469 0 0 0-.122-.245c.704 1.44 2.878 4.137 4.011 4.566zm.521-1.533c-.245-.429-.337-.919-.306-.95.429.153.857.306 1.316.49.214.092.429-.123.367-.337-.153-.766-.306-1.624-.276-1.655.367.521 1.225 1.869 2.602 2.574.214.092.214.429 0 .521-2.143 1.195-4.654.797-6.031-1.042 1.47.521 1.806.644 2.143.644.153.031.245-.123.184-.245zM69.681 12.349h.337v-1.256h.49v-.337h-1.316v.337h.49v1.256zM71.059 11.307l.429 1.042h.276l.429-1.042v1.042h.337v-1.594h-.49l-.398 1.073-.459-1.073h-.459v1.594h.337v-1.042z"/></symbol><symbol id="icon-partner6" viewBox="0 0 126 32"><path fill="#888" style="fill:var(--color3,#888)" d="M82.052 11.125h-1.658V8.271h-2.456v2.854H76.27V4.29h1.668v2.713h2.456V4.29h1.658v6.835zM84.888 11.125h-1.663V4.29h1.663v6.835zM91.709 10.28c-.257.282-.632.508-1.126.681s-1.036.258-1.625.258c-.906 0-1.629-.274-2.171-.822s-.831-1.31-.869-2.286l-.005-.591c0-.673.12-1.26.361-1.76.241-.504.584-.89 1.031-1.159.45-.272.969-.408 1.558-.408.861 0 1.53.196 2.005.587.478.388.757.969.836 1.742h-1.606c-.057-.382-.181-.654-.371-.817s-.459-.244-.808-.244c-.418 0-.741.175-.969.526s-.344.851-.347 1.502v.413c0 .682.117 1.195.352 1.54.237.341.61.512 1.116.512.434 0 .757-.095.969-.286V8.607h-1.159V7.476h2.827v2.807zM98.46 11.125h-1.658V8.271h-2.456v2.854h-1.667V4.29h1.667v2.713h2.456V4.29h1.658v6.835zM79.838 17.685a.67.67 0 0 0-.261-.563c-.171-.135-.474-.274-.907-.418s-.789-.283-1.064-.418c-.896-.435-1.344-1.033-1.344-1.793 0-.379.111-.712.332-1 .225-.291.542-.516.95-.676a3.69 3.69 0 0 1 1.378-.244c.497 0 .942.088 1.335.263a2.1 2.1 0 0 1 .921.751c.219.322.328.692.328 1.108h-1.663c0-.278-.087-.494-.261-.648-.171-.153-.404-.23-.698-.23-.298 0-.534.066-.708.197a.592.592 0 0 0-.257.493c0 .175.095.335.285.479.19.141.524.288 1.002.441.478.15.871.313 1.178.488.747.426 1.121 1.012 1.121 1.76 0 .598-.228 1.067-.684 1.408s-1.082.512-1.876.512a3.806 3.806 0 0 1-1.525-.296c-.453-.2-.795-.472-1.026-.817a2.13 2.13 0 0 1-.342-1.197h1.672c0 .366.095.637.285.812.193.172.505.258.936.258.275 0 .493-.058.651-.174a.584.584 0 0 0 .242-.498zM84.712 16.958l-.684.742v1.803h-1.667v-6.835h1.667v3.014l.58-.869 1.492-2.145h2.062l-2.337 3.023 2.337 3.812h-1.976l-1.473-2.544zM90.36 19.502h-1.663v-6.835h1.663v6.835zM93.187 18.235h2.902v1.268h-4.57v-6.835h1.668v5.567zM98.459 18.235h2.903v1.268h-4.57v-6.835h1.667v5.567zM81.7 22.317h-2.076v5.563h-1.667v-5.563h-2.038v-1.272H81.7v1.272zM84.978 25.467h-.903v2.413h-1.667v-6.835h2.722c.82 0 1.462.18 1.924.54s.694.868.694 1.526c0 .476-.098.87-.294 1.183-.193.313-.497.566-.912.76l1.444 2.756v.07H86.2l-1.221-2.413zm-.903-1.272h1.055c.317 0 .554-.081.713-.244.162-.166.242-.396.242-.69s-.081-.524-.242-.69c-.161-.169-.399-.253-.713-.253h-1.055v1.878zM92.683 26.603h-2.285l-.399 1.277h-1.781l2.537-6.835h1.568l2.556 6.835h-1.791l-.404-1.277zm-1.886-1.272h1.487l-.746-2.371-.741 2.371zM97.163 27.88h-1.662v-6.835h1.662v6.835zM104.098 27.88h-1.657l-2.451-4.253v4.253h-1.668v-6.835h1.668l2.447 4.253v-4.253h1.662v6.835zM106.929 27.88h-1.662v-6.835h1.662v6.835zM113.866 27.88h-1.658l-2.451-4.253v4.253h-1.667v-6.835h1.667l2.447 4.253v-4.253h1.663v6.835zM120.583 27.035c-.256.282-.631.509-1.126.681s-1.036.258-1.624.258c-.906 0-1.63-.274-2.171-.822s-.832-1.31-.87-2.286l-.005-.591c0-.673.121-1.26.362-1.76.24-.504.584-.89 1.031-1.16.45-.272.969-.408 1.558-.408.861 0 1.529.196 2.004.587.478.388.757.969.836 1.742h-1.606c-.056-.382-.18-.654-.37-.817s-.459-.244-.808-.244c-.418 0-.741.175-.969.526s-.343.851-.347 1.502v.413c0 .682.117 1.195.352 1.54.238.341.61.512 1.116.512.434 0 .757-.095.97-.286v-1.061h-1.16V24.23h2.827v2.807zM119.193 10.151a.273.273 0 0 0-.081.194v7.783a.277.277 0 0 1-.278.275h-12.369a.276.276 0 0 1-.278-.275V5.905c0-.152.124-.275.278-.275h12.394a.28.28 0 0 0 .196-.08l.557-.549c.175-.173.05-.469-.197-.469h-14.062a.277.277 0 0 0-.278.275v14.421c0 .152.125.275.278.275h14.594a.276.276 0 0 0 .277-.275V9.797c0-.245-.3-.367-.474-.194l-.556.549z"/><path fill="#888" style="fill:var(--color3,#888)" d="m108.062 10.534 2.033-1.443a.422.422 0 0 1 .575.084l2.17 2.804a.42.42 0 0 0 .63.036L124.837.392a.42.42 0 0 1 .542-.049l.322.227a.408.408 0 0 1 .083.593l-12.733 15.728a.419.419 0 0 1-.657-.009l-4.422-5.765a.409.409 0 0 1 .089-.584zM69.354 0H2.78C1.245 0 0 1.23 0 2.747v26.506C0 30.77 1.245 32 2.78 32h66.574c1.535 0 2.78-1.23 2.78-2.747V2.747C72.134 1.23 70.889 0 69.354 0z"/><path fill="#fff" style="fill:var(--color4,#fff)" d="M25.636 27.742h-5.755v-9.908h-8.526v9.908H5.567V4.016h5.788v9.419h8.526V4.016h5.755v23.726zM41.023 21.436c0-.837-.302-1.488-.907-1.956-.594-.467-1.644-.951-3.15-1.45s-2.738-.983-3.694-1.45c-3.111-1.51-4.667-3.585-4.667-6.225 0-1.314.385-2.471 1.154-3.471.781-1.01 1.88-1.793 3.298-2.347 1.418-.565 3.012-.847 4.782-.847 1.726 0 3.271.304 4.634.913 1.374.608 2.441 1.477 3.199 2.607.759 1.119 1.138 2.401 1.138 3.846h-5.772c0-.967-.302-1.716-.907-2.249-.594-.532-1.402-.799-2.424-.799-1.034 0-1.852.228-2.457.684-.594.445-.891 1.016-.891 1.711 0 .608.33 1.162.99 1.662.66.489 1.82.999 3.48 1.532 1.66.521 3.023 1.086 4.09 1.695 2.595 1.477 3.892 3.514 3.892 6.111 0 2.075-.791 3.705-2.375 4.889s-3.754 1.776-6.514 1.776c-1.946 0-3.71-.342-5.294-1.027-1.572-.695-2.759-1.64-3.562-2.835-.791-1.206-1.187-2.591-1.187-4.155h5.805c0 1.271.33 2.211.989 2.819.671.598 1.754.896 3.249.896.956 0 1.71-.201 2.259-.603.561-.413.841-.989.841-1.727zM67.954 8.432h-7.207v19.31h-5.788V8.432h-7.075V4.016h20.07v4.416z"/></symbol><symbol id="icon-partner7" viewBox="0 0 126 32"><path fill="#888" style="fill:var(--color3,#888)" d="M82.052 11.125h-1.658V8.271h-2.456v2.854H76.27V4.29h1.668v2.713h2.456V4.29h1.658v6.835zM84.888 11.125h-1.663V4.29h1.663v6.835zM91.709 10.28c-.257.282-.632.508-1.126.681s-1.036.258-1.625.258c-.906 0-1.629-.274-2.171-.822s-.831-1.31-.869-2.286l-.005-.591c0-.673.12-1.26.361-1.76.241-.504.584-.89 1.031-1.159.45-.272.969-.408 1.558-.408.861 0 1.53.196 2.005.587.478.388.757.969.836 1.742h-1.606c-.057-.382-.181-.654-.371-.817s-.459-.244-.808-.244c-.418 0-.741.175-.969.526s-.344.851-.347 1.502v.413c0 .682.117 1.195.352 1.54.237.341.61.512 1.116.512.434 0 .757-.095.969-.286V8.607h-1.159V7.476h2.827v2.807zM98.46 11.125h-1.658V8.271h-2.456v2.854h-1.667V4.29h1.667v2.713h2.456V4.29h1.658v6.835zM79.838 17.685a.67.67 0 0 0-.261-.563c-.171-.135-.474-.274-.907-.418s-.789-.283-1.064-.418c-.896-.435-1.344-1.033-1.344-1.793 0-.379.111-.712.332-1 .225-.291.542-.516.95-.676a3.69 3.69 0 0 1 1.378-.244c.497 0 .942.088 1.335.263a2.1 2.1 0 0 1 .921.751c.219.322.328.692.328 1.108h-1.663c0-.278-.087-.494-.261-.648-.171-.153-.404-.23-.698-.23-.298 0-.534.066-.708.197a.592.592 0 0 0-.257.493c0 .175.095.335.285.479.19.141.524.288 1.002.441.478.15.871.313 1.178.488.747.426 1.121 1.012 1.121 1.76 0 .598-.228 1.067-.684 1.408s-1.082.512-1.876.512a3.806 3.806 0 0 1-1.525-.296c-.453-.2-.795-.472-1.026-.817a2.13 2.13 0 0 1-.342-1.197h1.672c0 .366.095.637.285.812.193.172.505.258.936.258.275 0 .493-.058.651-.174a.584.584 0 0 0 .242-.498zM84.712 16.958l-.684.742v1.803h-1.667v-6.835h1.667v3.014l.58-.869 1.492-2.145h2.062l-2.337 3.023 2.337 3.812h-1.976l-1.473-2.544zM90.36 19.502h-1.663v-6.835h1.663v6.835zM93.187 18.235h2.902v1.268h-4.57v-6.835h1.668v5.567zM98.459 18.235h2.903v1.268h-4.57v-6.835h1.667v5.567zM81.7 22.317h-2.076v5.563h-1.667v-5.563h-2.038v-1.272H81.7v1.272zM84.978 25.467h-.903v2.413h-1.667v-6.835h2.722c.82 0 1.462.18 1.924.54s.694.868.694 1.526c0 .476-.098.87-.294 1.183-.193.313-.497.566-.912.76l1.444 2.756v.07H86.2l-1.221-2.413zm-.903-1.272h1.055c.317 0 .554-.081.713-.244.162-.166.242-.396.242-.69s-.081-.524-.242-.69c-.161-.169-.399-.253-.713-.253h-1.055v1.878zM92.683 26.603h-2.285l-.399 1.277h-1.781l2.537-6.835h1.568l2.556 6.835h-1.791l-.404-1.277zm-1.886-1.272h1.487l-.746-2.371-.741 2.371zM97.163 27.88h-1.662v-6.835h1.662v6.835zM104.098 27.88h-1.657l-2.451-4.253v4.253h-1.668v-6.835h1.668l2.447 4.253v-4.253h1.662v6.835zM106.929 27.88h-1.662v-6.835h1.662v6.835zM113.866 27.88h-1.658l-2.451-4.253v4.253h-1.667v-6.835h1.667l2.447 4.253v-4.253h1.663v6.835zM120.583 27.035c-.256.282-.631.509-1.126.681s-1.036.258-1.624.258c-.906 0-1.63-.274-2.171-.822s-.832-1.31-.87-2.286l-.005-.591c0-.673.121-1.26.362-1.76.24-.504.584-.89 1.031-1.16.45-.272.969-.408 1.558-.408.861 0 1.529.196 2.004.587.478.388.757.969.836 1.742h-1.606c-.056-.382-.18-.654-.37-.817s-.459-.244-.808-.244c-.418 0-.741.175-.969.526s-.343.851-.347 1.502v.413c0 .682.117 1.195.352 1.54.238.341.61.512 1.116.512.434 0 .757-.095.97-.286v-1.061h-1.16V24.23h2.827v2.807zM119.193 10.151a.273.273 0 0 0-.081.194v7.783a.277.277 0 0 1-.278.275h-12.369a.276.276 0 0 1-.278-.275V5.905c0-.152.124-.275.278-.275h12.394a.28.28 0 0 0 .196-.08l.557-.549c.175-.173.05-.469-.197-.469h-14.062a.277.277 0 0 0-.278.275v14.421c0 .152.125.275.278.275h14.594a.276.276 0 0 0 .277-.275V9.797c0-.245-.3-.367-.474-.194l-.556.549z"/><path fill="#888" style="fill:var(--color3,#888)" d="m108.062 10.534 2.033-1.443a.422.422 0 0 1 .575.084l2.17 2.804a.42.42 0 0 0 .63.036L124.837.392a.42.42 0 0 1 .542-.049l.322.227a.408.408 0 0 1 .083.593l-12.733 15.728a.419.419 0 0 1-.657-.009l-4.422-5.765a.409.409 0 0 1 .089-.584zM69.354 0H2.78C1.245 0 0 1.23 0 2.747v26.506C0 30.77 1.245 32 2.78 32h66.574c1.535 0 2.78-1.23 2.78-2.747V2.747C72.134 1.23 70.889 0 69.354 0z"/><path fill="#fff" style="fill:var(--color4,#fff)" d="M25.636 27.742h-5.755v-9.908h-8.526v9.908H5.567V4.016h5.788v9.419h8.526V4.016h5.755v23.726zM41.023 21.436c0-.837-.302-1.488-.907-1.956-.594-.467-1.644-.951-3.15-1.45s-2.738-.983-3.694-1.45c-3.111-1.51-4.667-3.585-4.667-6.225 0-1.314.385-2.471 1.154-3.471.781-1.01 1.88-1.793 3.298-2.347 1.418-.565 3.012-.847 4.782-.847 1.726 0 3.271.304 4.634.913 1.374.608 2.441 1.477 3.199 2.607.759 1.119 1.138 2.401 1.138 3.846h-5.772c0-.967-.302-1.716-.907-2.249-.594-.532-1.402-.799-2.424-.799-1.034 0-1.852.228-2.457.684-.594.445-.891 1.016-.891 1.711 0 .608.33 1.162.99 1.662.66.489 1.82.999 3.48 1.532 1.66.521 3.023 1.086 4.09 1.695 2.595 1.477 3.892 3.514 3.892 6.111 0 2.075-.791 3.705-2.375 4.889s-3.754 1.776-6.514 1.776c-1.946 0-3.71-.342-5.294-1.027-1.572-.695-2.759-1.64-3.562-2.835-.791-1.206-1.187-2.591-1.187-4.155h5.805c0 1.271.33 2.211.989 2.819.671.598 1.754.896 3.249.896.956 0 1.71-.201 2.259-.603.561-.413.841-.989.841-1.727zM67.954 8.432h-7.207v19.31h-5.788V8.432h-7.075V4.016h20.07v4.416z"/></symbol><symbol id="icon-partner8" viewBox="0 0 126 32"><path fill="#888" style="fill:var(--color3,#888)" d="M82.052 11.125h-1.658V8.271h-2.456v2.854H76.27V4.29h1.668v2.713h2.456V4.29h1.658v6.835zM84.888 11.125h-1.663V4.29h1.663v6.835zM91.709 10.28c-.257.282-.632.508-1.126.681s-1.036.258-1.625.258c-.906 0-1.629-.274-2.171-.822s-.831-1.31-.869-2.286l-.005-.591c0-.673.12-1.26.361-1.76.241-.504.584-.89 1.031-1.159.45-.272.969-.408 1.558-.408.861 0 1.53.196 2.005.587.478.388.757.969.836 1.742h-1.606c-.057-.382-.181-.654-.371-.817s-.459-.244-.808-.244c-.418 0-.741.175-.969.526s-.344.851-.347 1.502v.413c0 .682.117 1.195.352 1.54.237.341.61.512 1.116.512.434 0 .757-.095.969-.286V8.607h-1.159V7.476h2.827v2.807zM98.46 11.125h-1.658V8.271h-2.456v2.854h-1.667V4.29h1.667v2.713h2.456V4.29h1.658v6.835zM79.838 17.685a.67.67 0 0 0-.261-.563c-.171-.135-.474-.274-.907-.418s-.789-.283-1.064-.418c-.896-.435-1.344-1.033-1.344-1.793 0-.379.111-.712.332-1 .225-.291.542-.516.95-.676a3.69 3.69 0 0 1 1.378-.244c.497 0 .942.088 1.335.263a2.1 2.1 0 0 1 .921.751c.219.322.328.692.328 1.108h-1.663c0-.278-.087-.494-.261-.648-.171-.153-.404-.23-.698-.23-.298 0-.534.066-.708.197a.592.592 0 0 0-.257.493c0 .175.095.335.285.479.19.141.524.288 1.002.441.478.15.871.313 1.178.488.747.426 1.121 1.012 1.121 1.76 0 .598-.228 1.067-.684 1.408s-1.082.512-1.876.512a3.806 3.806 0 0 1-1.525-.296c-.453-.2-.795-.472-1.026-.817a2.13 2.13 0 0 1-.342-1.197h1.672c0 .366.095.637.285.812.193.172.505.258.936.258.275 0 .493-.058.651-.174a.584.584 0 0 0 .242-.498zM84.712 16.958l-.684.742v1.803h-1.667v-6.835h1.667v3.014l.58-.869 1.492-2.145h2.062l-2.337 3.023 2.337 3.812h-1.976l-1.473-2.544zM90.36 19.502h-1.663v-6.835h1.663v6.835zM93.187 18.235h2.902v1.268h-4.57v-6.835h1.668v5.567zM98.459 18.235h2.903v1.268h-4.57v-6.835h1.667v5.567zM81.7 22.317h-2.076v5.563h-1.667v-5.563h-2.038v-1.272H81.7v1.272zM84.978 25.467h-.903v2.413h-1.667v-6.835h2.722c.82 0 1.462.18 1.924.54s.694.868.694 1.526c0 .476-.098.87-.294 1.183-.193.313-.497.566-.912.76l1.444 2.756v.07H86.2l-1.221-2.413zm-.903-1.272h1.055c.317 0 .554-.081.713-.244.162-.166.242-.396.242-.69s-.081-.524-.242-.69c-.161-.169-.399-.253-.713-.253h-1.055v1.878zM92.683 26.603h-2.285l-.399 1.277h-1.781l2.537-6.835h1.568l2.556 6.835h-1.791l-.404-1.277zm-1.886-1.272h1.487l-.746-2.371-.741 2.371zM97.163 27.88h-1.662v-6.835h1.662v6.835zM104.098 27.88h-1.657l-2.451-4.253v4.253h-1.668v-6.835h1.668l2.447 4.253v-4.253h1.662v6.835zM106.929 27.88h-1.662v-6.835h1.662v6.835zM113.866 27.88h-1.658l-2.451-4.253v4.253h-1.667v-6.835h1.667l2.447 4.253v-4.253h1.663v6.835zM120.583 27.035c-.256.282-.631.509-1.126.681s-1.036.258-1.624.258c-.906 0-1.63-.274-2.171-.822s-.832-1.31-.87-2.286l-.005-.591c0-.673.121-1.26.362-1.76.24-.504.584-.89 1.031-1.16.45-.272.969-.408 1.558-.408.861 0 1.529.196 2.004.587.478.388.757.969.836 1.742h-1.606c-.056-.382-.18-.654-.37-.817s-.459-.244-.808-.244c-.418 0-.741.175-.969.526s-.343.851-.347 1.502v.413c0 .682.117 1.195.352 1.54.238.341.61.512 1.116.512.434 0 .757-.095.97-.286v-1.061h-1.16V24.23h2.827v2.807zM119.193 10.151a.273.273 0 0 0-.081.194v7.783a.277.277 0 0 1-.278.275h-12.369a.276.276 0 0 1-.278-.275V5.905c0-.152.124-.275.278-.275h12.394a.28.28 0 0 0 .196-.08l.557-.549c.175-.173.05-.469-.197-.469h-14.062a.277.277 0 0 0-.278.275v14.421c0 .152.125.275.278.275h14.594a.276.276 0 0 0 .277-.275V9.797c0-.245-.3-.367-.474-.194l-.556.549z"/><path fill="#888" style="fill:var(--color3,#888)" d="m108.062 10.534 2.033-1.443a.422.422 0 0 1 .575.084l2.17 2.804a.42.42 0 0 0 .63.036L124.837.392a.42.42 0 0 1 .542-.049l.322.227a.408.408 0 0 1 .083.593l-12.733 15.728a.419.419 0 0 1-.657-.009l-4.422-5.765a.409.409 0 0 1 .089-.584zM69.354 0H2.78C1.245 0 0 1.23 0 2.747v26.506C0 30.77 1.245 32 2.78 32h66.574c1.535 0 2.78-1.23 2.78-2.747V2.747C72.134 1.23 70.889 0 69.354 0z"/><path fill="#fff" style="fill:var(--color4,#fff)" d="M25.636 27.742h-5.755v-9.908h-8.526v9.908H5.567V4.016h5.788v9.419h8.526V4.016h5.755v23.726zM41.023 21.436c0-.837-.302-1.488-.907-1.956-.594-.467-1.644-.951-3.15-1.45s-2.738-.983-3.694-1.45c-3.111-1.51-4.667-3.585-4.667-6.225 0-1.314.385-2.471 1.154-3.471.781-1.01 1.88-1.793 3.298-2.347 1.418-.565 3.012-.847 4.782-.847 1.726 0 3.271.304 4.634.913 1.374.608 2.441 1.477 3.199 2.607.759 1.119 1.138 2.401 1.138 3.846h-5.772c0-.967-.302-1.716-.907-2.249-.594-.532-1.402-.799-2.424-.799-1.034 0-1.852.228-2.457.684-.594.445-.891 1.016-.891 1.711 0 .608.33 1.162.99 1.662.66.489 1.82.999 3.48 1.532 1.66.521 3.023 1.086 4.09 1.695 2.595 1.477 3.892 3.514 3.892 6.111 0 2.075-.791 3.705-2.375 4.889s-3.754 1.776-6.514 1.776c-1.946 0-3.71-.342-5.294-1.027-1.572-.695-2.759-1.64-3.562-2.835-.791-1.206-1.187-2.591-1.187-4.155h5.805c0 1.271.33 2.211.989 2.819.671.598 1.754.896 3.249.896.956 0 1.71-.201 2.259-.603.561-.413.841-.989.841-1.727zM67.954 8.432h-7.207v19.31h-5.788V8.432h-7.075V4.016h20.07v4.416z"/></symbol></defs></svg>