<svg aria-hidden="true" style="width:0;height:0;position:absolute;overflow:hidden" xmlns="http://www.w3.org/2000/svg"><defs><symbol id="logo-text" viewBox="0 0 112 32"><path d="M.087 24.785 9.384.698h4.92l9.264 24.087h-4.513l-1.832-4.933H6.365l-1.798 4.933H.088zM11.794 5.053l-4.14 11.261h8.279l-4.14-11.261zm30.091 10.784c0 5.886-3.19 9.254-7.635 9.254-1.73 0-3.156-.51-4.547-1.361v6.43h-4.038V6.992h3.088l.645 1.667c1.289-1.055 2.918-1.973 5.226-1.973 4.14 0 7.261 3.334 7.261 9.151zm-3.868 0c0-3.674-1.866-5.851-4.547-5.851-1.527 0-2.816.68-3.766 1.463v9.084c1.052.714 2.307 1.259 3.665 1.225 2.749 0 4.649-2.041 4.649-5.92zm22.627 0c0 5.886-3.19 9.254-7.635 9.254-1.731 0-3.156-.51-4.547-1.361v6.43h-4.038V6.992h3.088l.645 1.667c1.289-1.055 2.918-1.973 5.225-1.973 4.14 0 7.262 3.334 7.262 9.151zm-3.869 0c0-3.674-1.866-5.851-4.547-5.851-1.527 0-2.816.68-3.767 1.463v9.084c1.052.714 2.307 1.259 3.665 1.225 2.748 0 4.649-2.041 4.649-5.92zm21.609 1.361H66.033c.204 2.926 2.172 4.933 5.327 4.933 1.663 0 3.563-.544 5.259-1.497l1.086 2.62a13.355 13.355 0 0 1-6.685 1.837c-5.192 0-8.754-3.198-8.754-9.117 0-5.647 3.461-9.356 8.144-9.356 4.92 0 7.974 3.844 7.974 9.526v1.055zm-8.008-7.552c-2.443 0-4.106 2.075-4.343 5.069h8.619c-.238-2.994-1.798-5.069-4.275-5.069zm14.381 15.139h-4.038V.086h4.038v24.699zm7.527 0h-4.038V.086h4.038v24.699zm19.369-8.914c0 5.648-3.631 9.288-8.415 9.288-4.852 0-8.415-3.606-8.415-9.254s3.631-9.288 8.449-9.288c4.784 0 8.381 3.606 8.381 9.254zm-3.733.035c0-3.504-1.934-5.954-4.683-5.954-2.782 0-4.683 2.415-4.683 5.92s1.934 5.919 4.717 5.919c2.715 0 4.649-2.381 4.649-5.885z"/></symbol><symbol id="logo" viewBox="0 0 29 32"><path d="M15.893.442 26.85 6.785a3.3 3.3 0 0 1 1.645 2.857v12.686a3.3 3.3 0 0 1-1.645 2.857l-10.957 6.343a3.284 3.284 0 0 1-3.29 0L1.646 25.185a3.3 3.3 0 0 1-1.645-2.857V9.642a3.3 3.3 0 0 1 1.645-2.857L12.603.442a3.284 3.284 0 0 1 3.29 0zm-1.645 10.594L9.974 13.51v4.948l4.274 2.474 4.274-2.474V13.51l-4.274-2.474z"/></symbol><symbol id="Rectangle" viewBox="0 0 18560 32"><path fill="#fff" style="fill:var(--color1,#fff)" opacity=".5" d="M0 6z"/></symbol></defs></svg>