<svg aria-hidden="true" style="position:absolute;width:0;height:0;overflow:hidden" xmlns="http://www.w3.org/2000/svg">
  <defs>
    <symbol id="Appello" viewBox="0 0 98 32">
      <path fill="#fff" style="fill:var(--color1, #fff)" d="m37.477 21.749 4.972-12.846h2.631l4.953 12.846H47.62l-.98-2.631h-5.806l-.962 2.631h-2.395zm6.26-10.523-2.214 6.006h4.427l-2.214-6.006zm16.09 5.751c0 3.139-1.706 4.935-4.082 4.935-.925 0-1.687-.272-2.431-.726v3.429h-2.159V12.259h1.651l.345.889c.69-.562 1.56-1.052 2.794-1.052 2.214 0 3.883 1.778 3.883 4.881zm-2.068 0c0-1.96-.998-3.121-2.431-3.121-.816 0-1.506.363-2.014.78v4.844c.562.381 1.234.671 1.96.653 1.47 0 2.486-1.089 2.486-3.157zm12.099 0c0 3.139-1.706 4.935-4.082 4.935-.925 0-1.687-.272-2.431-.726v3.429h-2.159V12.259h1.651l.345.889c.689-.562 1.56-1.052 2.794-1.052 2.214 0 3.883 1.778 3.883 4.881zm-2.068 0c0-1.96-.998-3.121-2.431-3.121-.816 0-1.506.363-2.014.78v4.844c.562.381 1.234.671 1.96.653 1.47 0 2.486-1.089 2.486-3.157zm11.554.726h-6.605c.109 1.56 1.161 2.631 2.849 2.631.889 0 1.905-.29 2.812-.798l.581 1.397a7.157 7.157 0 0 1-3.574.98c-2.776 0-4.681-1.706-4.681-4.863 0-3.012 1.851-4.99 4.355-4.99 2.631 0 4.264 2.05 4.264 5.08v.562zm-4.282-4.028c-1.306 0-2.195 1.107-2.322 2.704h4.609c-.127-1.597-.962-2.704-2.286-2.704zm7.69 8.074h-2.159V8.576h2.159v13.173zm4.025 0h-2.159V8.576h2.159v13.173zm10.357-4.753c0 3.012-1.941 4.953-4.499 4.953-2.595 0-4.5-1.923-4.5-4.935s1.942-4.953 4.518-4.953c2.558 0 4.482 1.923 4.482 4.935zm-1.996.018c0-1.869-1.034-3.175-2.503-3.175-1.488 0-2.504 1.288-2.504 3.157s1.034 3.157 2.522 3.157c1.452 0 2.486-1.27 2.486-3.139zM15.934.442 26.92 6.785a3.298 3.298 0 0 1 1.65 2.857v12.686a3.298 3.298 0 0 1-1.65 2.857l-10.986 6.343a3.3 3.3 0 0 1-3.299 0L1.649 25.185A3.297 3.297 0 0 1 0 22.328V9.642a3.3 3.3 0 0 1 1.649-2.857L12.635.442a3.3 3.3 0 0 1 3.299 0zm-1.649 10.594L9.999 13.51v4.948l4.286 2.474 4.286-2.474V13.51l-4.286-2.474z"/>
    </symbol>
  </defs>
</svg>