<svg aria-hidden="true" style="position: absolute; width: 0; height: 0; overflow: hidden;" version="1.1" xmlns="http://www.w3.org/2000/svg" xmlns:xlink="http://www.w3.org/1999/xlink">
<defs>
<symbol id="logo-text" viewBox="0 0 112 32">
<path d="M0.087 24.785l9.297-24.087h4.92l9.264 24.087h-4.513l-1.832-4.933h-10.858l-1.798 4.933h-4.479zM11.794 5.053l-4.14 11.261h8.279l-4.14-11.261zM41.885 15.837c0 5.886-3.19 9.254-7.635 9.254-1.73 0-3.156-0.51-4.547-1.361v6.43h-4.038v-23.168h3.088l0.645 1.667c1.289-1.055 2.918-1.973 5.226-1.973 4.14 0 7.261 3.334 7.261 9.151zM38.017 15.837c0-3.674-1.866-5.851-4.547-5.851-1.527 0-2.816 0.68-3.766 1.463v9.084c1.052 0.714 2.307 1.259 3.665 1.225 2.749 0 4.649-2.041 4.649-5.92zM60.644 15.837c0 5.886-3.19 9.254-7.635 9.254-1.731 0-3.156-0.51-4.547-1.361v6.43h-4.038v-23.168h3.088l0.645 1.667c1.289-1.055 2.918-1.973 5.225-1.973 4.14 0 7.262 3.334 7.262 9.151zM56.775 15.837c0-3.674-1.866-5.851-4.547-5.851-1.527 0-2.816 0.68-3.767 1.463v9.084c1.052 0.714 2.307 1.259 3.665 1.225 2.748 0 4.649-2.041 4.649-5.92zM78.384 17.198h-12.351c0.204 2.926 2.172 4.933 5.327 4.933 1.663 0 3.563-0.544 5.259-1.497l1.086 2.62c-2.002 1.191-4.411 1.837-6.685 1.837-5.192 0-8.754-3.198-8.754-9.117 0-5.647 3.461-9.356 8.144-9.356 4.92 0 7.974 3.844 7.974 9.526v1.055zM70.376 9.646c-2.443 0-4.106 2.075-4.343 5.069h8.619c-0.238-2.994-1.798-5.069-4.275-5.069zM84.757 24.785h-4.038v-24.699h4.038v24.699zM92.284 24.785h-4.038v-24.699h4.038v24.699zM111.653 15.871c0 5.648-3.631 9.288-8.415 9.288-4.852 0-8.415-3.606-8.415-9.254s3.631-9.288 8.449-9.288c4.784 0 8.381 3.606 8.381 9.254zM107.92 15.906c0-3.504-1.934-5.954-4.683-5.954-2.782 0-4.683 2.415-4.683 5.92s1.934 5.919 4.717 5.919c2.715 0 4.649-2.381 4.649-5.885z"></path>
</symbol>
<symbol id="logo" viewBox="0 0 29 32">
<path d="M15.893 0.442l10.957 6.343c1.018 0.589 1.645 1.678 1.645 2.857v12.686c0 1.179-0.627 2.268-1.645 2.857l-10.957 6.343c-1.018 0.589-2.272 0.589-3.29 0l-10.957-6.343c-1.018-0.589-1.645-1.678-1.645-2.857v-12.686c0-1.179 0.627-2.268 1.645-2.857l10.957-6.343c1.018-0.589 2.272-0.589 3.29 0zM14.248 11.036l-4.274 2.474v4.948l4.274 2.474 4.274-2.474v-4.948l-4.274-2.474z"></path>
</symbol>
<symbol id="Rectangle" viewBox="0 0 18560 32">
      <path fill="#fff" style="fill:var(--color1, #fff)" opacity=".5" d="M0 6z"/>
    </symbol>
</defs>
</svg>
